<svg width="42" height="35" viewBox="0 0 42 35" fill="none" xmlns="http://www.w3.org/2000/svg">
    <path d="M20.7732 0L33.7386 27.1644H26.413L20.7732 15.3484L15.1335 27.1644H7.80786L20.7732 0Z" fill="#003153"/>
    <path d="M25.6379 27.1824H23.8907L20.7732 20.6557L17.6557 27.1824H15.9085L20.7732 16.9979L25.6379 27.1824Z" fill="#003153"/>
    <path d="M1.93407 28.5451H39.5409V29.1189H1.93407V28.5451Z" fill="#003153"/>
    <path d="M41.475 30.8402H0V31.4139H41.475V30.8402Z" fill="#003153"/>
    <path d="M7.09166 31.9877H34.3119V32.1311H7.09166V31.9877Z" fill="#003153"/>
    <path d="M32.9507 32.5615H8.45254V32.7049H32.9507V32.5615Z" fill="#003153"/>
    <path d="M9.7419 33.1352H31.7903V33.2787H9.7419V33.1352Z" fill="#003153"/>
    <path d="M30.6599 33.709H10.8164V33.8525H30.6599V33.709Z" fill="#003153"/>
    <path d="M11.8193 34.2828H29.6785V34.4262H11.8193V34.2828Z" fill="#003153"/>
    <path d="M28.7523 34.8566H12.6789V35H28.7523V34.8566Z" fill="#003153"/>
    </svg>
    