<svg width="606" height="243" viewBox="0 0 606 243" fill="none" xmlns="http://www.w3.org/2000/svg">
    <path d="M304.811 64.6935L308.61 196.876H336.6L332.802 64.6935H304.811Z" fill="black" />
    <path
        d="M294.215 37.9375L297.614 51.9145C302.146 50.9827 306.744 49.9178 311.409 48.7198C316.207 47.5218 320.806 46.2572 325.204 44.9261C329.736 43.4618 333.668 42.1307 337 40.9326L333.001 27.5546C330.202 28.6196 327.204 29.6845 324.005 30.7494C323.113 31.0092 322.205 31.2691 321.282 31.529C320.632 31.311 319.94 31.0511 319.206 30.7494C317.074 29.6845 315.208 28.2868 313.608 26.5563C312.009 24.8258 311.209 22.8291 311.209 20.5662C311.209 18.9688 311.876 17.6376 313.208 16.5727C314.675 15.3747 316.274 14.7757 318.007 14.7757C319.606 14.7757 321.072 14.9088 322.405 15.175L326.404 15.9737L328.003 1.59737C326.537 1.06491 324.871 0.665573 323.005 0.399348C321.272 0.133115 319.406 0 317.407 0C313.808 0 310.343 0.665572 307.011 1.99671C303.679 3.32786 300.946 5.45769 298.814 8.38619C296.681 11.3147 295.615 15.175 295.615 19.9671C295.615 24.493 297.148 28.553 300.213 32.1471C301.59 33.6363 302.991 34.9161 304.417 35.9863C302.149 36.511 298.748 37.1614 294.215 37.9375Z"
        fill="black" />
    <path fill-rule="evenodd" clip-rule="evenodd"
        d="M184.976 168.323C186.76 168.943 189.017 169.382 191.748 169.641C193.507 169.305 195.072 168.666 196.444 167.724C198.71 166.127 201.042 163.531 203.441 159.937C205.841 156.21 208.64 151.218 211.838 144.961C215.837 136.975 219.969 130.718 224.234 126.192C228.632 121.666 233.098 118.472 237.629 116.608C242.294 114.611 246.959 113.613 251.624 113.613C257.489 113.613 262.954 114.878 268.018 117.407C273.083 119.936 277.482 123.397 281.214 127.79C284.946 132.049 287.811 136.975 289.811 142.565C291.943 148.023 293.009 153.68 293.009 159.537C293.009 166.592 291.477 172.982 288.411 178.706C285.479 184.297 281.347 188.756 276.016 192.084C270.817 195.279 264.82 196.876 258.022 196.876C252.291 196.876 245.626 195.878 238.029 193.881C232.233 192.358 226.205 189.556 219.944 185.476C217.806 187.937 215.571 190.007 213.238 191.684C211.391 192.991 209.344 194.076 207.097 194.939C204.404 196.896 200.829 197.874 196.372 197.874C194.486 197.874 192.664 197.845 190.908 197.786C189.538 197.845 188.118 197.874 186.647 197.874L186.668 197.58C178.849 197.072 172.487 195.905 167.582 194.081C160.918 191.551 156.253 187.624 153.587 182.3C150.922 176.842 149.389 169.987 148.989 161.734L144.791 50.7165H172.781L176.979 148.356C177.246 154.479 177.912 159.071 178.978 162.133C180.045 165.195 182.044 167.258 184.976 168.323ZM233.572 162.821C236.142 164.164 238.628 165.266 241.028 166.127C246.359 167.99 250.758 168.922 254.223 168.922C256.889 168.922 259.088 168.656 260.821 168.123C262.554 167.591 263.82 166.726 264.62 165.528C265.419 164.329 265.819 162.732 265.819 160.735C265.819 157.94 265.153 155.078 263.82 152.15C262.487 149.221 260.688 146.758 258.422 144.762C256.289 142.632 253.757 141.567 250.825 141.567C248.026 141.567 245.626 142.632 243.627 144.762C241.761 146.758 239.895 149.687 238.029 153.547C236.758 156.281 235.273 159.372 233.572 162.821Z"
        fill="black" />
    <path
        d="M0.799714 180.503C0.266571 184.629 0 188.223 0 191.285C0 200.47 1.66607 208.324 4.99822 214.846C8.33036 221.502 12.8621 226.893 18.5934 231.02C24.4579 235.146 31.1889 238.141 38.7862 240.005C46.5167 242.002 54.7804 243 63.5773 243C74.5067 243 83.9034 241.602 91.7672 238.807C99.6311 236.011 106.229 232.284 111.56 227.625C116.892 223.099 121.09 217.975 124.156 212.251C127.355 206.527 129.62 200.736 130.953 194.879C132.286 188.889 132.953 183.232 132.953 177.907C132.953 171.917 132.219 165.594 130.753 158.938C129.42 152.283 127.621 145.893 125.355 139.77C123.089 133.514 120.624 128.056 117.958 123.397L92.1671 134.379C96.9654 143.83 100.298 152.349 102.164 159.937C104.03 167.391 104.963 173.847 104.963 179.305C104.963 183.298 104.363 187.425 103.163 191.684C101.964 195.811 99.8977 199.605 96.9654 203.066C94.0331 206.66 89.9012 209.522 84.5698 211.652C79.2384 213.915 72.4408 215.046 64.1771 215.046C56.9797 215.046 50.6486 213.981 45.1839 211.851C39.7192 209.855 35.454 206.726 32.3884 202.467C29.4562 198.34 27.99 193.016 27.99 186.493C27.99 183.698 28.2566 180.902 28.7897 178.107C29.3229 175.178 30.1226 172.05 31.1889 168.722C32.2552 165.261 33.5214 161.468 34.9875 157.341L10.3963 148.755C7.464 155.278 5.26479 161.201 3.79864 166.526C2.3325 171.717 1.33286 176.376 0.799714 180.503Z"
        fill="black" />
    <path
        d="M54.5805 111.217C57.5128 114.012 61.0449 115.41 65.1767 115.41C69.1753 115.41 72.5741 114.012 75.3731 111.217C78.3054 108.422 79.7715 104.961 79.7715 100.834C79.7715 96.7075 78.3054 93.1799 75.3731 90.2514C72.5741 87.3229 69.1753 85.8587 65.1767 85.8587C61.0449 85.8587 57.5128 87.3229 54.5805 90.2514C51.7815 93.1799 50.382 96.7075 50.382 100.834C50.382 104.961 51.7815 108.422 54.5805 111.217Z"
        fill="black" />
    <path
        d="M487.704 21.5L561.792 176.725H519.931L487.704 109.205L455.477 176.725H413.616L487.704 21.5Z"
        fill="#003153" />
    <path
        d="M515.502 176.828H505.519L487.704 139.533L469.89 176.828H459.906L487.704 118.631L515.502 176.828Z"
        fill="#003153" />
    <path d="M380.052 184.615H594.948V187.893H380.052V184.615Z" fill="#003153" />
    <path d="M606 197.73H369V201.008H606V197.73Z" fill="#003153" />
    <path d="M409.524 204.287H565.068V205.107H409.524V204.287Z" fill="#003153" />
    <path d="M557.29 207.566H417.3V208.385H557.29V207.566Z" fill="#003153" />
    <path d="M424.668 210.844H550.659V211.664H424.668V210.844Z" fill="#003153" />
    <path d="M544.199 214.123H430.808V214.943H544.199V214.123Z" fill="#003153" />
    <path d="M436.539 217.402H538.591V218.221H436.539V217.402Z" fill="#003153" />
    <path d="M533.299 220.68H441.451V221.5H533.299V220.68Z" fill="#003153" />
</svg>
    