<svg width="707" height="214" viewBox="0 0 707 214" fill="none" xmlns="http://www.w3.org/2000/svg">
    <path fill-rule="evenodd" clip-rule="evenodd"
        d="M384.558 168.758L384.593 168.26C379.233 167.699 374.373 166.664 370.013 165.154C363.208 162.619 357.937 158.615 354.201 153.143C353.776 152.505 353.372 151.844 352.988 151.158C345.833 152.456 338.899 153.051 332.183 152.943C323.91 152.676 316.504 151.208 309.966 148.539C303.427 145.736 298.223 141.732 294.353 136.528C293.926 135.932 293.523 135.318 293.144 134.685C292.635 140.053 291.168 145.005 288.743 149.54C285.807 155.145 281.671 159.616 276.333 162.952C271.129 166.155 265.124 167.757 258.319 167.757C252.581 167.757 245.909 166.756 238.303 164.754C232.5 163.227 226.465 160.418 220.197 156.328C218.057 158.795 215.819 160.87 213.483 162.552C211.634 163.862 209.585 164.949 207.335 165.814C204.639 167.777 201.06 168.758 196.598 168.758C194.709 168.758 192.886 168.728 191.127 168.67C189.756 168.728 188.334 168.758 186.862 168.758L186.883 168.463C179.055 167.953 172.686 166.784 167.775 164.954C161.103 162.418 156.433 158.481 153.764 153.143C151.095 147.671 149.561 140.798 149.16 132.524L144.957 21.2198H172.979L177.183 119.111C177.449 125.25 178.117 129.855 179.184 132.924C180.252 135.994 182.253 138.062 185.189 139.13C186.975 139.751 189.235 140.192 191.969 140.451C193.729 140.115 195.296 139.474 196.67 138.529C198.938 136.928 201.273 134.326 203.675 130.722C206.077 126.985 208.88 121.981 212.082 115.708C216.085 107.701 220.222 101.428 224.492 96.8905C228.895 92.353 233.366 89.15 237.902 87.2816C242.573 85.2797 247.243 84.2787 251.914 84.2787C257.785 84.2787 263.256 85.5466 268.327 88.0823C273.397 90.618 277.801 94.0879 281.537 98.492C284.687 102.092 287.22 106.167 289.137 110.716C289.77 105.972 291.175 101.563 293.353 97.4911C296.555 91.6189 300.959 86.4808 306.563 82.0767C312.301 77.6726 318.973 73.9358 326.579 70.8662C332.298 68.558 338.395 66.6649 344.869 65.1868L344.193 50.0468H372.415L375.818 120.913C376.085 126.385 376.952 130.589 378.42 133.525C380.021 136.327 382.29 138.263 385.225 139.33C387.199 139.958 389.564 140.375 392.32 140.581C395.532 140.398 398.216 140.048 400.37 139.53C403.84 138.73 406.308 137.262 407.776 135.126C409.244 132.857 409.978 129.655 409.978 125.517C409.978 121.78 409.444 117.31 408.377 112.105C407.442 106.9 406.175 101.495 404.574 95.8896C402.972 90.2844 401.371 85.1462 399.77 80.4752L427.392 72.8681C428.993 77.4057 430.594 82.6773 432.195 88.6829C433.797 94.6885 435.131 100.894 436.199 107.3C437.4 113.573 438 119.645 438 125.517C438 132.857 437.066 139.063 435.198 144.135C433.33 149.073 430.728 153.21 427.392 156.546C424.189 159.749 420.319 162.285 415.782 164.153C411.518 165.833 406.816 167.013 401.676 167.692C399.666 168.402 397.318 168.758 394.633 168.758C393.044 168.758 391.491 168.724 389.974 168.656C388.189 168.724 386.383 168.758 384.558 168.758ZM233.84 133.614C236.414 134.961 238.902 136.065 241.305 136.928C246.643 138.796 251.046 139.731 254.516 139.731C257.184 139.731 259.386 139.464 261.121 138.93C262.856 138.396 264.123 137.529 264.924 136.327C265.725 135.126 266.125 133.525 266.125 131.523C266.125 128.72 265.458 125.851 264.123 122.915C262.789 119.979 260.987 117.51 258.719 115.508C256.584 113.373 254.049 112.305 251.113 112.305C248.311 112.305 245.909 113.373 243.907 115.508C242.039 117.51 240.171 120.446 238.303 124.316C237.031 127.057 235.543 130.156 233.84 133.614ZM346.114 93.0686L347.486 123.781C346.791 123.904 346.094 124.016 345.394 124.116C341.791 124.65 338.255 124.85 334.785 124.717C331.316 124.583 328.247 124.116 325.578 123.315C322.909 122.381 320.774 121.18 319.173 119.712C317.572 118.244 316.771 116.375 316.771 114.107C316.771 111.304 317.639 108.702 319.373 106.299C321.108 103.764 323.577 101.495 326.779 99.493C330.115 97.4911 334.052 95.8896 338.589 94.6885C340.96 94.0109 343.468 93.471 346.114 93.0686Z"
        fill="black" />
    <path
        d="M392.364 52.0487L388.961 38.0356C393.5 37.2574 396.904 36.6053 399.174 36.0793C397.747 35.0063 396.344 33.7232 394.966 32.2301C391.897 28.6268 390.362 24.5563 390.362 20.0187C390.362 15.2142 391.43 11.3439 393.565 8.40786C395.7 5.47179 398.435 3.33646 401.771 2.00187C405.107 0.667291 408.577 0 412.18 0C414.181 0 416.049 0.133463 417.784 0.400383C419.652 0.667296 421.32 1.06767 422.788 1.6015L421.187 16.015L417.184 15.2142C415.849 14.9473 414.381 14.8138 412.78 14.8138C411.045 14.8138 409.444 15.4144 407.976 16.6155C406.642 17.6832 405.975 19.0178 405.975 20.6193C405.975 22.8881 406.775 24.8899 408.377 26.6249C409.978 28.3598 411.846 29.7612 413.981 30.8288C414.716 31.1313 415.408 31.3919 416.059 31.6104C416.983 31.3499 417.892 31.0893 418.785 30.8288C421.987 29.7612 424.99 28.6935 427.792 27.6258L431.795 41.0384C428.459 42.2395 424.523 43.5741 419.986 45.0421C415.582 46.3767 410.979 47.6445 406.175 48.8456C401.504 50.0468 396.901 51.1144 392.364 52.0487Z"
        fill="black" />
    <path
        d="M0.800634 151.341C0.266878 155.479 0 159.082 0 162.152C0 171.36 1.66799 179.234 5.00396 185.774C8.33994 192.447 12.8769 197.852 18.6147 201.989C24.4861 206.126 31.2247 209.129 38.8308 210.997C46.5702 212.999 54.8434 214 63.6504 214C74.5924 214 83.9999 212.599 91.8728 209.796C99.7457 206.993 106.351 203.257 111.688 198.586C117.026 194.048 121.229 188.91 124.298 183.171C127.501 177.432 129.769 171.627 131.104 165.755C132.438 159.749 133.105 154.077 133.105 148.739C133.105 142.733 132.372 136.394 130.904 129.721C129.569 123.048 127.768 116.642 125.499 110.503C123.231 104.231 120.762 98.759 118.094 94.0879L92.2731 105.098C97.0769 114.574 100.413 123.115 102.281 130.722C104.149 138.196 105.083 144.669 105.083 150.14C105.083 154.144 104.483 158.281 103.282 162.552C102.081 166.689 100.013 170.493 97.0769 173.963C94.1412 177.566 90.0046 180.435 84.6671 182.571C79.3295 184.839 72.5241 185.974 64.2509 185.974C57.0452 185.974 50.7068 184.906 45.2358 182.771C39.7648 180.769 35.4948 177.633 32.4257 173.362C29.49 169.225 28.0222 163.886 28.0222 157.347C28.0222 154.544 28.2891 151.742 28.8228 148.939C29.3566 146.003 30.1572 142.867 31.2247 139.53C32.2922 136.06 33.5599 132.257 35.0277 128.12L10.4082 119.512C7.47258 126.051 5.27084 131.99 3.80301 137.328C2.33518 142.533 1.33439 147.204 0.800634 151.341Z"
        fill="black" />
    <path
        d="M54.6433 81.8765C57.5789 84.6791 61.1151 86.0804 65.2517 86.0804C69.2549 86.0804 72.6575 84.6791 75.4598 81.8765C78.3954 79.0739 79.8632 75.604 79.8632 71.4668C79.8632 67.3296 78.3954 63.7929 75.4598 60.8569C72.6575 57.9208 69.2549 56.4527 65.2517 56.4527C61.1151 56.4527 57.5789 57.9208 54.6433 60.8569C51.8411 63.7929 50.4399 67.3296 50.4399 71.4668C50.4399 75.604 51.8411 79.0739 54.6433 81.8765Z"
        fill="black" />
    <path d="M588.704 7L662.792 162.225H620.931L588.704 94.7049L556.477 162.225H514.616L588.704 7Z"
        fill="#003153" />
    <path
        d="M616.502 162.328H606.519L588.704 125.033L570.89 162.328H560.906L588.704 104.131L616.502 162.328Z"
        fill="#003153" />
    <path d="M481.052 170.115H695.948V173.393H481.052V170.115Z" fill="#003153" />
    <path d="M707 183.23H470V186.508H707V183.23Z" fill="#003153" />
    <path d="M510.524 189.787H666.068V190.607H510.524V189.787Z" fill="#003153" />
    <path d="M658.29 193.066H518.3V193.885H658.29V193.066Z" fill="#003153" />
    <path d="M525.668 196.344H651.659V197.164H525.668V196.344Z" fill="#003153" />
    <path d="M645.199 199.623H531.808V200.443H645.199V199.623Z" fill="#003153" />
    <path d="M537.539 202.902H639.591V203.721H537.539V202.902Z" fill="#003153" />
    <path d="M634.299 206.18H542.451V207H634.299V206.18Z" fill="#003153" />
</svg>
    