<svg width="794" height="200" viewBox="0 0 794 200" fill="none" xmlns="http://www.w3.org/2000/svg">
    <path d="M118.704 0L192.792 155.225H150.931L118.704 87.7049L86.4771 155.225H44.6163L118.704 0Z"
        fill="#003153" />
    <path
        d="M146.502 155.328H136.519L118.704 118.033L100.89 155.328H90.906L118.704 97.1311L146.502 155.328Z"
        fill="#003153" />
    <path d="M11.0518 163.115H225.948V166.393H11.0518V163.115Z" fill="#003153" />
    <path d="M237 176.23H0V179.508H237V176.23Z" fill="#003153" />
    <path d="M40.5238 182.787H196.068V183.607H40.5238V182.787Z" fill="#003153" />
    <path d="M188.29 186.066H48.3002V186.885H188.29V186.066Z" fill="#003153" />
    <path d="M55.668 189.344H181.659V190.164H55.668V189.344Z" fill="#003153" />
    <path d="M175.199 192.623H61.8078V193.443H175.199V192.623Z" fill="#003153" />
    <path d="M67.5389 195.902H169.591V196.721H67.5389V195.902Z" fill="#003153" />
    <path d="M164.299 199.18H72.4508V200H164.299V199.18Z" fill="#003153" />
    <path fill-rule="evenodd" clip-rule="evenodd"
        d="M357.517 29H317.555L269 168.803H302.369L311.76 139.644H363.312L372.503 168.803H405.672L357.517 29ZM338.335 61.3544L355.919 114.679H318.953L336.337 61.3544H338.335Z"
        fill="black" />
    <path
        d="M408.036 64.9494H431.614C432.28 66.8134 432.879 69.21 433.412 72.1392C434.078 75.0685 434.478 77.6648 434.611 79.9283C438.74 74.7356 443.669 70.6081 449.397 67.5457C455.125 64.3502 461.386 62.7525 468.18 62.7525H468.379C475.839 62.7525 482.1 64.3502 487.162 67.5457C492.224 70.6081 496.087 75.0685 498.751 80.9269C502.88 75.3347 507.876 70.8744 513.737 67.5457C519.731 64.2171 526.259 62.5527 533.319 62.5527H533.518C544.575 62.5527 553.034 66.0145 558.895 72.9381C564.756 79.7286 567.687 89.3816 567.687 101.897V168.603H537.914V107.29C537.914 99.8336 536.649 94.7075 534.118 91.9114C531.587 89.1153 527.657 87.6507 522.329 87.5176H522.129C516.401 87.7839 511.739 89.8476 508.142 93.7089C504.546 97.5701 502.747 103.628 502.747 111.883V168.803H472.975V107.29C472.975 99.8336 471.71 94.774 469.179 92.1111C466.648 89.315 462.651 87.8504 457.19 87.7173H456.99C451.395 87.8504 446.799 89.9142 443.203 93.9086C439.606 97.7698 437.808 103.761 437.808 111.883V168.803H408.036V64.9494Z"
        fill="black" />
    <path fill-rule="evenodd" clip-rule="evenodd"
        d="M597.815 168.803C602.21 170.268 607.073 171 612.401 171C619.861 171 626.521 169.669 632.382 167.006C638.243 164.343 643.172 160.947 647.168 156.82C647.435 159.083 647.768 161.28 648.168 163.411C648.567 165.408 649.1 167.205 649.766 168.803H677.74C676.674 164.942 675.808 161.081 675.142 157.219C674.476 153.358 674.143 149.297 674.143 145.037V102.496C674.143 96.1055 673.011 90.4468 670.746 85.5204C668.615 80.4608 665.551 76.2668 661.555 72.9381C657.692 69.6095 653.03 67.0797 647.568 65.3488C642.107 63.6179 636.046 62.7525 629.385 62.7525H627.587C619.195 62.7525 610.936 63.9508 602.81 66.3474C594.817 68.6109 587.624 71.6732 581.23 75.5345L592.619 96.1055C598.214 93.0431 603.876 90.6465 609.604 88.9156C615.465 87.0516 620.993 86.1195 626.188 86.1195H626.987C633.381 86.1195 638.177 87.5176 641.374 90.3136C644.571 93.1097 646.169 96.8378 646.169 101.498V104.494H638.377C596.949 104.494 576.235 115.744 576.235 138.246V140.044C576.235 144.704 577.101 148.964 578.832 152.826C580.697 156.554 583.228 159.816 586.425 162.612C589.622 165.275 593.419 167.338 597.815 168.803ZM634.38 145.636C629.718 147.5 624.923 148.432 619.994 148.432C615.332 148.432 611.602 147.433 608.804 145.436C606.007 143.306 604.608 140.576 604.608 137.248V136.648C604.608 126.796 616.131 121.869 639.176 121.869H646.369V137.447C643.039 140.909 639.043 143.639 634.38 145.636Z"
        fill="black" />
    <path
        d="M714.474 64.9494H690.896V168.803H720.669V113.88C720.669 106.158 722.867 99.9001 727.262 95.1069C731.792 90.1805 737.653 87.7173 744.846 87.7173H745.645C752.039 87.7173 756.702 89.5148 759.632 93.1097C762.696 96.5715 764.228 101.897 764.228 109.087V168.803H794V102.696C794 90.0473 790.803 80.2611 784.409 73.3376C778.148 66.2808 769.023 62.7525 757.035 62.7525H756.435C749.508 62.7525 742.581 64.2836 735.655 67.346C728.861 70.4083 722.867 75.0684 717.671 81.3263C717.671 79.0628 717.338 76.3333 716.672 73.1378C716.006 69.8092 715.274 67.0797 714.474 64.9494Z"
        fill="black" />
</svg>
    